<?xml version="1.0" standalone="no"?>
<!DOCTYPE svg PUBLIC "-//W3C//DTD SVG 20010904//EN"
 "http://www.w3.org/TR/2001/REC-SVG-20010904/DTD/svg10.dtd">
<svg version="1.0" xmlns="http://www.w3.org/2000/svg"
 width="2000.000000pt" height="2000.000000pt" viewBox="0 0 2000.000000 2000.000000"
 preserveAspectRatio="xMidYMid meet">

<g transform="translate(0.000000,2000.000000) scale(0.100000,-0.100000)"
fill="#000000" stroke="none">
<path d="M10355 12025 c-512 -81 -826 -424 -900 -983 -36 -272 -11 -586 65
-808 113 -334 349 -552 687 -636 119 -30 369 -32 486 -5 263 62 433 245 528
570 23 76 23 77 56 77 l33 0 -5 -82 c-7 -103 -25 -480 -25 -514 l0 -24 165 0
165 0 0 605 0 605 -465 0 -465 0 0 -170 0 -170 241 0 240 0 -6 -47 c-36 -257
-167 -420 -385 -479 -90 -24 -291 -25 -380 -1 -252 67 -400 254 -456 577 -23
129 -22 401 1 533 55 321 202 505 456 573 88 23 272 23 359 0 202 -55 334
-192 364 -378 6 -37 15 -68 20 -68 5 0 99 27 208 60 109 33 201 60 204 60 13
0 -6 123 -32 198 -93 279 -348 461 -717 511 -104 14 -342 12 -442 -4z"/>
<path d="M2787 11993 c-4 -3 -7 -539 -7 -1190 l0 -1183 230 0 230 0 0 1190 0
1190 -223 0 c-123 0 -227 -3 -230 -7z"/>
<path d="M3810 10810 l0 -1190 212 0 211 0 -6 493 c-4 270 -10 702 -14 960 -6
434 -5 467 11 467 9 0 21 -10 27 -22 5 -13 173 -444 372 -958 l362 -935 200
-3 200 -2 375 956 c206 526 381 958 388 961 7 3 17 2 21 -3 5 -5 3 -373 -5
-819 -7 -445 -13 -874 -13 -952 l-1 -143 215 0 215 0 0 1190 0 1190 -329 0
c-305 0 -330 -1 -336 -17 -61 -181 -693 -1857 -701 -1860 -5 -2 -162 401 -349
894 -186 494 -347 917 -356 941 l-18 42 -341 0 -340 0 0 -1190z"/>
<path d="M7766 11991 c-8 -12 -816 -2352 -816 -2362 0 -5 109 -9 243 -9 l243
0 21 68 c12 37 47 147 78 245 l56 177 507 -2 507 -3 75 -240 76 -240 248 -3
c197 -2 247 0 244 10 -3 7 -186 535 -406 1173 -220 638 -404 1168 -407 1178
-7 16 -32 17 -335 17 -181 0 -331 -4 -334 -9z m364 -373 c19 -45 371 -1180
367 -1184 -2 -2 -184 -3 -404 -2 l-399 3 187 592 c103 325 190 597 194 602 11
19 45 12 55 -11z"/>
<path d="M12100 10810 l0 -1190 230 0 230 0 0 1190 0 1190 -230 0 -230 0 0
-1190z"/>
<path d="M13130 10810 l0 -1190 225 0 225 0 0 465 0 465 565 0 565 0 0 190 0
190 -565 0 -565 0 0 340 0 340 640 0 640 0 0 195 0 195 -865 0 -865 0 0 -1190z"/>
<path d="M15080 11996 c0 -2 194 -370 430 -817 l430 -813 0 -373 0 -373 230 0
230 0 0 383 1 382 424 805 425 805 -262 3 c-144 1 -265 -1 -269 -5 -4 -5 -127
-276 -273 -603 -146 -327 -271 -596 -278 -598 -8 -1 -107 209 -277 590 -146
326 -269 599 -274 606 -7 9 -74 12 -273 12 -145 0 -264 -2 -264 -4z"/>
<path d="M12683 8393 l-733 -3 0 -210 0 -210 2260 0 2260 0 0 215 0 215 -1527
-2 c-841 -2 -1858 -4 -2260 -5z"/>
<path d="M16720 8185 l0 -215 315 0 315 0 0 215 0 215 -315 0 -315 0 0 -215z"/>
</g>
</svg>
